<svg width="283.888" height="44.287" viewBox="0 0 283.888 44.287" xmlns="http://www.w3.org/2000/svg"><g id="svgGroup" stroke-linecap="round" fill-rule="evenodd" font-size="9pt" stroke="#242b3d" stroke-width="0.50mm" fill="#2260c3" style="stroke:#242b3d;stroke-width:0.50mm;fill:#2260c3"><path d="M 149.293 31.836 L 154.36 35.404 L 157.252 32.202 L 158.961 14.453 L 153.761 11.89 L 162.111 11.06 L 162.111 14.746 Q 162.819 13.77 163.673 12.915 Q 164.528 12.061 165.48 11.438 A 8.847 8.847 0 0 1 167.47 10.461 A 6.571 6.571 0 0 1 169.606 10.107 A 8.152 8.152 0 0 1 173.292 10.889 A 7.283 7.283 0 0 1 175.892 13.049 A 9.54 9.54 0 0 1 177.443 16.296 A 15.218 15.218 0 0 1 177.955 20.337 A 35.901 35.901 0 0 1 177.833 23.218 A 38.381 38.381 0 0 1 177.467 26.245 A 37.179 37.179 0 0 1 176.869 29.199 A 21.491 21.491 0 0 1 176.051 31.836 L 180.861 33.398 L 168.141 35.889 L 172.462 32.642 Q 172.975 30.762 173.158 29.028 A 31.218 31.218 0 0 0 173.341 25.757 Q 173.341 24.829 173.28 23.645 A 20.702 20.702 0 0 0 173.012 21.24 A 17.104 17.104 0 0 0 172.426 18.848 A 8.386 8.386 0 0 0 171.437 16.76 Q 170.827 15.845 169.935 15.295 A 3.992 3.992 0 0 0 167.799 14.746 A 5.424 5.424 0 0 0 164.869 15.698 A 9.869 9.869 0 0 0 162.111 18.506 L 162.111 32.007 L 166.139 34.888 L 154.054 35.742 L 154.283 35.489 L 145.289 35.107 L 145.851 32.104 A 10.183 10.183 0 0 1 142.47 34.9 A 11.807 11.807 0 0 1 138.038 36.06 A 14.227 14.227 0 0 1 137.025 36.097 A 9.513 9.513 0 0 1 134.462 35.779 A 6.386 6.386 0 0 1 131.923 34.46 Q 130.91 33.569 130.421 32.263 A 8.28 8.28 0 0 1 129.933 29.346 Q 129.933 27.856 130.665 26.453 A 7.589 7.589 0 0 1 132.777 23.975 Q 134.157 22.9 136.159 22.253 Q 138.16 21.606 140.7 21.606 Q 141.871 21.606 143.397 21.826 A 9.053 9.053 0 0 1 146.29 22.754 Q 146.168 21.265 145.839 19.714 Q 145.509 18.164 144.874 16.895 A 5.951 5.951 0 0 0 143.226 14.832 Q 142.213 14.038 140.7 14.038 Q 139.406 14.038 138.185 14.575 Q 136.964 15.112 135.902 16.113 A 11.124 11.124 0 0 0 133.986 18.555 A 16.047 16.047 0 0 0 132.545 21.802 L 130.494 9.839 L 133.595 14.6 A 12.251 12.251 0 0 1 135.914 12.341 Q 137.086 11.499 138.246 11.047 A 9.81 9.81 0 0 1 140.492 10.449 A 15.632 15.632 0 0 1 142.579 10.303 Q 144.459 10.4 146.058 11.072 A 7.952 7.952 0 0 1 148.829 13 A 9.017 9.017 0 0 1 150.673 16.089 A 12.156 12.156 0 0 1 151.344 20.288 A 28.533 28.533 0 0 1 151.198 23.071 A 37.064 37.064 0 0 1 150.77 26.099 A 43.933 43.933 0 0 1 150.111 29.114 A 32.241 32.241 0 0 1 149.293 31.836 Z M 23.463 4.736 L 29.42 0 L 28.011 3.021 L 37.916 1.709 L 34.913 32.446 L 39.796 34.399 L 27.565 35.596 L 31.959 32.153 L 31.202 5.786 L 27.474 4.172 L 22.609 14.6 L 22.023 7.495 Q 21.217 6.519 20.314 5.957 Q 19.41 5.396 18.568 5.115 A 7.391 7.391 0 0 0 17.055 4.761 Q 16.383 4.688 16.017 4.688 Q 14.039 4.688 12.343 5.688 Q 10.646 6.689 9.401 8.557 A 15.373 15.373 0 0 0 7.435 13.062 A 22.323 22.323 0 0 0 6.715 18.945 A 22.88 22.88 0 0 0 7.435 24.878 Q 8.156 27.563 9.389 29.492 A 9.616 9.616 0 0 0 12.282 32.483 A 6.456 6.456 0 0 0 15.822 33.545 A 5.632 5.632 0 0 0 19.093 32.605 A 7.753 7.753 0 0 0 21.339 30.225 A 10.729 10.729 0 0 0 22.621 27.075 Q 23.024 25.366 23.024 23.804 L 23.024 23.157 A 4.584 4.584 0 0 0 22.975 22.51 Q 24.562 23.56 25.306 24.89 A 5.555 5.555 0 0 1 26.051 27.637 A 6.98 6.98 0 0 1 25.404 30.432 A 8.84 8.84 0 0 1 23.488 33.167 A 10.269 10.269 0 0 1 20.363 35.242 A 10.568 10.568 0 0 1 16.066 36.06 A 18.86 18.86 0 0 1 12.135 35.645 A 16.216 16.216 0 0 1 8.4 34.363 Q 6.618 33.496 5.079 32.153 Q 3.541 30.811 2.418 28.955 Q 1.295 27.1 0.648 24.683 Q 0.001 22.266 0.001 19.287 A 22.607 22.607 0 0 1 0.599 13.928 A 18.907 18.907 0 0 1 2.26 9.485 Q 3.322 7.495 4.75 5.969 A 15.257 15.257 0 0 1 7.826 3.418 A 13.758 13.758 0 0 1 11.293 1.868 A 13.023 13.023 0 0 1 14.918 1.343 Q 17.409 1.343 19.679 2.209 Q 21.95 3.076 23.463 4.736 Z M 79.494 2.71 L 107.496 2.295 L 105.592 16.602 L 102.785 6.152 L 95.289 7.007 L 96.29 31.396 L 102.345 34.497 L 82.838 36.353 L 89.943 31.201 L 91.188 7.251 L 83.449 6.958 L 80.446 15.845 L 79.494 2.71 Z M 198.488 12.939 L 202.492 8.008 L 200.685 20.19 Q 200.392 18.921 199.66 17.688 Q 198.927 16.455 197.841 15.479 A 8.876 8.876 0 0 0 195.338 13.904 A 7.888 7.888 0 0 0 192.238 13.306 A 7.526 7.526 0 0 0 190.455 13.513 A 4.281 4.281 0 0 0 188.954 14.185 Q 188.307 14.648 187.929 15.356 A 3.526 3.526 0 0 0 187.55 17.041 A 2.77 2.77 0 0 0 188.197 18.945 A 5.225 5.225 0 0 0 189.894 20.178 Q 190.944 20.679 192.286 21.033 A 250.885 250.885 0 0 1 195.045 21.777 A 28.086 28.086 0 0 1 197.804 22.693 Q 199.147 23.218 200.197 24.048 A 6.362 6.362 0 0 1 201.893 26.111 A 6.484 6.484 0 0 1 202.54 29.15 A 7.016 7.016 0 0 1 201.747 32.605 Q 200.953 34.033 199.708 34.949 A 8.337 8.337 0 0 1 196.95 36.279 A 11.146 11.146 0 0 1 193.995 36.694 Q 192.824 36.694 191.652 36.45 A 13.533 13.533 0 0 1 189.381 35.767 A 13.536 13.536 0 0 1 187.294 34.717 Q 186.305 34.106 185.499 33.398 L 181.788 38.354 L 182.936 26.245 A 17.109 17.109 0 0 0 184.816 29.346 Q 185.914 30.786 187.257 31.848 A 11.13 11.13 0 0 0 190.138 33.508 A 8.748 8.748 0 0 0 193.336 34.106 Q 195.265 34.106 196.425 33.289 A 2.682 2.682 0 0 0 197.584 30.957 A 2.202 2.202 0 0 0 196.937 29.333 A 5.839 5.839 0 0 0 195.228 28.198 A 17.414 17.414 0 0 0 192.824 27.319 Q 191.481 26.929 190.065 26.465 Q 188.649 26.001 187.306 25.378 A 9.863 9.863 0 0 1 184.901 23.816 A 7.12 7.12 0 0 1 183.192 21.521 Q 182.545 20.166 182.545 18.237 A 7.736 7.736 0 0 1 183.034 15.356 A 6.477 6.477 0 0 1 184.315 13.293 A 6.851 6.851 0 0 1 186.098 11.926 Q 187.086 11.401 188.087 11.121 Q 189.088 10.84 189.992 10.742 Q 190.895 10.645 191.53 10.645 Q 192.457 10.645 193.41 10.803 A 12.282 12.282 0 0 1 195.277 11.267 A 11.785 11.785 0 0 1 197.011 12 Q 197.828 12.427 198.488 12.939 Z M 236.427 31.836 L 241.627 35.498 L 232.423 35.107 L 232.985 32.104 A 10.183 10.183 0 0 1 229.603 34.9 A 11.807 11.807 0 0 1 225.172 36.06 A 14.227 14.227 0 0 1 224.159 36.097 A 9.513 9.513 0 0 1 221.596 35.779 A 6.386 6.386 0 0 1 219.056 34.46 Q 218.043 33.569 217.555 32.263 A 8.28 8.28 0 0 1 217.067 29.346 Q 217.067 27.856 217.799 26.453 A 7.589 7.589 0 0 1 219.911 23.975 Q 221.29 22.9 223.292 22.253 Q 225.294 21.606 227.833 21.606 Q 229.005 21.606 230.531 21.826 A 9.053 9.053 0 0 1 233.424 22.754 Q 233.302 21.265 232.973 19.714 Q 232.643 18.164 232.008 16.895 A 5.951 5.951 0 0 0 230.36 14.832 Q 229.347 14.038 227.833 14.038 Q 226.539 14.038 225.319 14.575 Q 224.098 15.112 223.036 16.113 A 11.124 11.124 0 0 0 221.119 18.555 A 16.047 16.047 0 0 0 219.679 21.802 L 217.628 9.839 L 220.729 14.6 A 12.251 12.251 0 0 1 223.048 12.341 Q 224.22 11.499 225.38 11.047 A 9.81 9.81 0 0 1 227.626 10.449 A 15.632 15.632 0 0 1 229.713 10.303 Q 231.593 10.4 233.192 11.072 A 7.952 7.952 0 0 1 235.963 13 A 9.017 9.017 0 0 1 237.806 16.089 A 12.156 12.156 0 0 1 238.478 20.288 A 28.533 28.533 0 0 1 238.331 23.071 A 37.064 37.064 0 0 1 237.904 26.099 A 43.933 43.933 0 0 1 237.245 29.114 A 32.241 32.241 0 0 1 236.427 31.836 Z M 245.851 16.04 L 241.627 16.309 L 253.541 3.296 A 126.819 126.819 0 0 0 251.246 11.353 L 260.744 12.158 L 259.498 15.088 L 250.294 15.747 Q 249.952 17.529 249.769 18.909 Q 249.586 20.288 249.464 21.24 A 40.296 40.296 0 0 0 249.293 23.193 A 29.818 29.818 0 0 0 249.586 27.588 A 12.713 12.713 0 0 0 250.502 30.92 A 5.441 5.441 0 0 0 252.089 33.044 A 3.663 3.663 0 0 0 254.396 33.789 A 4.025 4.025 0 0 0 256.483 33.289 Q 257.326 32.788 257.838 31.995 A 5.419 5.419 0 0 0 258.571 30.212 Q 258.79 29.224 258.79 28.247 A 10.387 10.387 0 0 0 258.644 26.489 A 3.518 3.518 0 0 1 260.243 28.21 A 6.045 6.045 0 0 1 260.792 30.786 Q 260.792 32.227 260.316 33.325 A 5.231 5.231 0 0 1 259.01 35.168 Q 258.18 35.913 257.057 36.304 Q 255.934 36.694 254.64 36.694 Q 253.859 36.694 252.797 36.523 Q 251.735 36.353 250.587 35.901 Q 249.44 35.449 248.317 34.619 A 8.485 8.485 0 0 1 246.315 32.471 Q 245.436 31.152 244.887 29.26 A 16.071 16.071 0 0 1 244.337 24.805 Q 244.337 22.51 244.813 20.227 A 53.417 53.417 0 0 1 245.851 16.04 Z M 61.403 10.986 L 61.256 14.16 Q 61.818 13.477 62.477 12.903 A 8.122 8.122 0 0 1 63.917 11.902 A 7.727 7.727 0 0 1 65.59 11.23 Q 66.481 10.986 67.506 10.986 A 9.078 9.078 0 0 1 71.083 11.865 A 8.924 8.924 0 0 1 74.061 14.172 Q 75.343 15.674 76.1 17.859 A 15.218 15.218 0 0 1 76.857 22.852 A 20 20 0 0 1 76.051 28.833 A 12.596 12.596 0 0 1 73.854 33.093 A 9.071 9.071 0 0 1 70.595 35.645 Q 68.727 36.499 66.603 36.499 Q 64.747 36.499 63.16 35.864 A 8.506 8.506 0 0 1 60.402 34.106 L 60.158 39.6 L 65.04 42.236 L 53.053 44.287 L 56.74 40.601 L 55.739 14.453 L 51.295 12.695 L 61.403 10.986 Z M 283.888 22.241 L 268.043 26.538 A 17.312 17.312 0 0 0 268.898 29.211 Q 269.435 30.518 270.216 31.543 Q 270.997 32.568 272.023 33.203 Q 273.048 33.838 274.342 33.838 Q 276.051 33.838 277.321 33.13 Q 278.59 32.422 279.396 31.335 A 6.591 6.591 0 0 0 280.519 28.943 A 6.659 6.659 0 0 0 280.715 27.368 A 5.746 5.746 0 0 0 280.641 26.44 A 3.371 3.371 0 0 1 281.776 27.148 A 3.465 3.465 0 0 1 282.484 28.113 A 4.058 4.058 0 0 1 282.838 29.187 Q 282.936 29.736 282.936 30.249 A 4.182 4.182 0 0 1 282.252 32.507 A 6.641 6.641 0 0 1 280.336 34.436 A 10.619 10.619 0 0 1 277.418 35.791 A 12.615 12.615 0 0 1 273.732 36.304 A 10.634 10.634 0 0 1 268.934 35.254 A 10.718 10.718 0 0 1 265.358 32.41 Q 263.893 30.615 263.112 28.198 A 16.65 16.65 0 0 1 262.33 23.047 Q 262.33 20.264 263.112 17.908 Q 263.893 15.552 265.419 13.892 Q 266.945 12.231 269.166 11.377 A 11.565 11.565 0 0 1 273.344 10.665 A 16.17 16.17 0 0 1 274.293 10.693 A 8.302 8.302 0 0 1 277.98 11.841 Q 279.664 12.842 280.922 14.417 Q 282.179 15.991 282.948 18.018 Q 283.717 20.044 283.888 22.241 Z M 129.396 12.988 L 126.198 18.848 Q 125.978 17.944 125.575 17.31 A 4.675 4.675 0 0 0 124.672 16.248 A 3.966 3.966 0 0 0 123.61 15.588 A 6.628 6.628 0 0 0 122.487 15.234 A 6.498 6.498 0 0 0 121.187 15.106 A 7.804 7.804 0 0 0 119.679 15.259 Q 119.166 15.43 118.58 15.796 A 11.864 11.864 0 0 0 117.409 16.711 A 11.604 11.604 0 0 0 115.993 18.237 L 116.432 32.397 L 120.827 34.595 L 107.887 35.742 L 111.232 32.349 L 112.599 15.356 L 107.399 12.988 L 115.797 11.401 L 115.895 14.453 Q 116.749 13.428 117.653 12.769 A 17.293 17.293 0 0 1 119.288 11.694 Q 120.143 11.23 120.949 10.986 A 10.728 10.728 0 0 1 123.394 10.705 A 11.021 11.021 0 0 1 123.927 10.718 Q 124.562 10.742 125.258 10.864 Q 125.953 10.986 126.674 11.243 A 7.204 7.204 0 0 1 128.077 11.926 A 7.473 7.473 0 0 1 129.396 12.988 Z M 213.893 1.709 L 210.89 32.446 L 215.773 34.399 L 203.541 35.596 L 207.936 32.153 L 207.179 5.786 L 201.539 3.345 L 213.893 1.709 Z M 52.955 34.009 L 40.602 35.742 L 44.435 32.739 L 43.605 15.894 L 39.088 12.939 L 49.586 11.157 L 47.706 30.737 L 52.955 34.009 Z M 61.036 18.286 L 60.548 30.444 Q 61.329 31.665 62.465 32.458 Q 63.6 33.252 64.992 33.252 A 4.885 4.885 0 0 0 67.848 32.422 Q 69.044 31.592 69.813 30.115 A 12.053 12.053 0 0 0 70.936 26.636 A 24.991 24.991 0 0 0 71.29 22.29 A 16.755 16.755 0 0 0 70.997 19.08 Q 70.704 17.578 70.143 16.467 Q 69.581 15.356 68.727 14.722 Q 67.872 14.087 66.749 14.087 A 5.585 5.585 0 0 0 65.773 14.209 A 4.956 4.956 0 0 0 64.345 14.771 Q 63.551 15.21 62.684 16.04 A 9.338 9.338 0 0 0 61.036 18.286 Z M 267.628 23.95 L 278.346 20.044 A 16.943 16.943 0 0 0 277.138 17.029 A 10.214 10.214 0 0 0 275.734 14.966 Q 275.001 14.16 274.257 13.782 A 3.152 3.152 0 0 0 272.828 13.403 Q 271.803 13.403 271.022 13.794 A 4.29 4.29 0 0 0 269.667 14.856 A 6.446 6.446 0 0 0 268.69 16.431 Q 268.287 17.334 268.043 18.359 A 16.102 16.102 0 0 0 267.689 20.471 Q 267.579 21.558 267.579 22.607 L 267.579 23.279 A 4.744 4.744 0 0 0 267.628 23.95 Z M 146.388 25.537 L 146.388 25.244 Q 145.509 24.902 144.618 24.719 A 18.611 18.611 0 0 0 142.97 24.451 Q 142.213 24.365 141.688 24.353 Q 141.163 24.341 140.993 24.341 A 6.374 6.374 0 0 0 138.576 24.854 A 5.439 5.439 0 0 0 136.879 26.013 A 4.608 4.608 0 0 0 135.878 27.563 Q 135.548 28.418 135.548 29.248 Q 135.548 31.128 136.464 32.092 A 3.514 3.514 0 0 0 139.137 33.057 Q 140.309 33.057 141.359 32.642 Q 142.409 32.227 143.324 31.531 Q 144.24 30.835 144.984 29.944 A 13.838 13.838 0 0 0 146.29 28.101 Q 146.339 27.417 146.364 26.782 A 32.404 32.404 0 0 0 146.388 25.537 Z M 233.522 25.537 L 233.522 25.244 Q 232.643 24.902 231.752 24.719 A 18.611 18.611 0 0 0 230.104 24.451 Q 229.347 24.365 228.822 24.353 Q 228.297 24.341 228.126 24.341 A 6.374 6.374 0 0 0 225.709 24.854 A 5.439 5.439 0 0 0 224.013 26.013 A 4.608 4.608 0 0 0 223.012 27.563 Q 222.682 28.418 222.682 29.248 Q 222.682 31.128 223.598 32.092 A 3.514 3.514 0 0 0 226.271 33.057 Q 227.443 33.057 228.493 32.642 Q 229.542 32.227 230.458 31.531 Q 231.373 30.835 232.118 29.944 A 13.838 13.838 0 0 0 233.424 28.101 Q 233.473 27.417 233.497 26.782 A 32.404 32.404 0 0 0 233.522 25.537 Z M 49.855 5.249 Q 49.855 5.981 49.562 6.628 A 3.756 3.756 0 0 1 48.756 7.776 Q 48.244 8.276 47.584 8.557 A 3.514 3.514 0 0 1 46.193 8.838 A 3.727 3.727 0 0 1 44.74 8.557 A 3.471 3.471 0 0 1 43.58 7.776 Q 43.092 7.275 42.799 6.628 Q 42.506 5.981 42.506 5.249 Q 42.506 4.492 42.799 3.845 A 3.816 3.816 0 0 1 43.58 2.71 Q 44.069 2.222 44.74 1.941 A 3.727 3.727 0 0 1 46.193 1.66 A 3.514 3.514 0 0 1 47.584 1.941 Q 48.244 2.222 48.756 2.71 A 3.609 3.609 0 0 1 49.562 3.845 Q 49.855 4.492 49.855 5.249 Z"/></g></svg>